<svg width="60" height="38" viewBox="0 0 60 38" fill="none" xmlns="http://www.w3.org/2000/svg">
<path d="M2.18692 25.6503C20.6923 25.6503 39.1976 25.6503 58.2637 25.6503C58.1866 26.7215 58.1095 27.7927 58.0301 28.8964C58.1977 29.6688 58.3633 30.313 58.6288 31.0412C59.2624 33.0211 59.2875 34.2842 58.3367 36.1711C57.4157 37.2087 56.3796 37.7411 54.9926 37.9391C54.3388 37.961 53.691 37.9714 53.0374 37.9701C52.8411 37.9706 52.6449 37.9711 52.4427 37.9717C51.7855 37.9732 51.1284 37.973 50.4712 37.9728C49.9998 37.9735 49.5285 37.9743 49.0572 37.9751C47.7769 37.9772 46.4966 37.9777 45.2163 37.9779C44.1473 37.9781 43.0784 37.9789 42.0094 37.9798C39.4872 37.9817 36.9649 37.9822 34.4427 37.9821C31.8414 37.9819 29.2402 37.9844 26.6389 37.988C24.4052 37.9911 22.1714 37.9923 19.9376 37.9922C18.6037 37.9921 17.2698 37.9928 15.9359 37.9952C14.6811 37.9975 13.4262 37.9975 12.1714 37.9958C11.7114 37.9955 11.2514 37.9961 10.7914 37.9975C10.1623 37.9993 9.53329 37.9982 8.90421 37.9964C8.63265 37.9982 8.63265 37.9982 8.35561 38C6.59303 37.989 4.74887 37.7047 3.35519 36.5479C2.14234 35.1004 1.6505 33.86 1.66486 31.965C1.72728 31.3745 1.88312 30.8657 2.0701 30.3021C2.60715 28.6656 2.47011 27.3364 2.18692 25.6503Z" fill="#404042"/>
<path d="M48.6839 0.377201C49.3692 1.14595 49.1838 2.18963 49.1512 3.15956C49.3199 3.2026 49.4885 3.24564 49.6623 3.28999C50.5547 3.74258 51.0103 4.38258 51.4877 5.24633C51.7015 5.93814 51.7489 6.55694 51.7442 7.27876C51.7435 7.48499 51.7427 7.69122 51.7419 7.90371C51.74 8.11711 51.738 8.33051 51.736 8.55039C51.7349 8.76738 51.7339 8.98437 51.7328 9.20794C51.7301 9.74232 51.7262 10.2767 51.7214 10.8111C52.0105 10.7919 52.2997 10.7728 52.5976 10.7531C53.2993 10.7067 53.5344 10.7707 54.1143 11.1872C54.6471 11.902 54.6333 12.3156 54.6165 13.1985C54.6135 13.478 54.6105 13.7574 54.6074 14.0454C54.5956 14.4816 54.5956 14.4816 54.5836 14.9266C54.5794 15.221 54.5752 15.5154 54.5709 15.8188C54.5599 16.5456 54.5445 17.2721 54.5252 17.9988C54.7196 17.9915 54.7196 17.9915 54.9179 17.9841C55.5074 17.9648 56.0968 17.9527 56.6865 17.9409C56.8904 17.9331 57.0943 17.9253 57.3044 17.9173C58.8102 17.8945 58.8102 17.8945 59.568 18.4064C60.1222 19.2761 60.0329 20.017 59.8993 21.013C59.4002 23.1314 59.4002 23.1314 58.9646 23.5635C58.2233 23.5863 57.487 23.5937 56.7456 23.5914C56.5097 23.5916 56.2738 23.5918 56.0308 23.592C55.234 23.5924 54.4371 23.5911 53.6403 23.5899C53.0717 23.5898 52.5031 23.5898 51.9344 23.59C50.7069 23.59 49.4794 23.5894 48.2519 23.5881C46.477 23.5862 44.7022 23.5856 42.9274 23.5853C40.0481 23.5848 37.1689 23.5832 34.2896 23.581C31.492 23.5789 28.6944 23.5773 25.8968 23.5763C25.6383 23.5762 25.6383 23.5762 25.3746 23.5761C24.5102 23.5758 23.6457 23.5755 22.7812 23.5752C15.6049 23.5728 8.42859 23.5687 1.25228 23.5635C1.05867 23.1223 0.867085 22.6801 0.676357 22.2376C0.569452 21.9914 0.462547 21.7453 0.352403 21.4917C-0.0106891 20.5305 -0.0800083 19.939 0.0840094 18.9263C0.591755 18.2488 0.866251 18.0238 1.71382 17.8847C1.98693 17.8856 2.26003 17.8864 2.54141 17.8873C2.69391 17.8865 2.84642 17.8857 3.00355 17.8849C3.51416 17.8834 4.02448 17.8885 4.53506 17.8935C4.90121 17.8938 5.26736 17.8936 5.63351 17.8931C6.62746 17.8929 7.62131 17.8983 8.61523 17.9048C9.65396 17.9106 10.6927 17.9111 11.7314 17.9122C13.6984 17.9151 15.6653 17.9227 17.6323 17.932C19.8716 17.9424 22.1109 17.9475 24.3503 17.9521C28.9567 17.9618 33.5631 17.9782 38.1695 17.9988C38.1646 17.814 38.1597 17.6292 38.1547 17.4389C38.1352 16.6015 38.1231 15.7641 38.1111 14.9266C38.1033 14.6358 38.0954 14.345 38.0874 14.0454C38.0843 13.7659 38.0813 13.4865 38.0782 13.1985C38.0733 12.9411 38.0684 12.6837 38.0634 12.4185C38.1945 11.578 38.4199 11.3101 39.1041 10.8111C39.7804 10.7437 40.3611 10.7225 41.0318 10.7531C41.2058 10.7573 41.3799 10.7615 41.5593 10.7658C41.9872 10.7767 42.4149 10.7933 42.8426 10.8111C42.8371 10.6007 42.8371 10.6007 42.8314 10.3862C42.8168 9.74528 42.8077 9.10443 42.7988 8.46344C42.7929 8.24286 42.787 8.02228 42.781 7.79502C42.7637 6.15021 42.9988 5.15887 44.1277 3.89863C44.7118 3.39143 44.7118 3.39143 45.4128 3.15956C45.4019 3.01968 45.3911 2.8798 45.3799 2.73569C45.3106 1.21264 45.3106 1.21264 45.8363 0.493133C46.8936 -0.22638 47.5214 -0.063253 48.6839 0.377201Z" fill="#404042"/>
<path d="M4.00017 3.81721C4.59185 4.14252 5.17362 4.48192 5.75188 4.83014C7.48551 5.81295 9.07563 5.50622 10.9488 5.13039C12.2562 4.86809 13.467 4.70037 14.8041 4.78259C15.5051 5.2753 15.5051 5.2753 15.9724 5.94191C16.1004 6.72005 16.0624 7.14392 15.7241 7.85478C15.0991 8.41499 14.4403 8.51387 13.6359 8.72427C13.775 8.79303 13.9141 8.86179 14.0574 8.93264C14.689 9.24885 15.316 9.5733 15.9432 9.89808C16.2716 10.0601 16.2716 10.0601 16.6067 10.2255C18.4017 11.1674 18.4017 11.1674 18.7078 12.1316C18.7892 13.0431 18.6576 13.3596 18.0753 14.0571C17.3332 14.548 17.0921 14.587 16.2412 14.4347C15.1354 14.114 14.129 13.5528 13.1101 13.0282C12.8623 12.9029 12.6146 12.7775 12.3593 12.6484C11.615 12.2707 10.8727 11.8895 10.1311 11.5066C9.82288 11.3478 9.82288 11.3478 9.50848 11.1857C8.59493 10.7134 7.68383 10.237 6.77503 9.75588C6.00667 9.34998 5.23288 8.95687 4.45492 8.56939C4.25141 8.46676 4.0479 8.36413 3.83822 8.25839C3.44882 8.06226 3.0582 7.86852 2.66619 7.6776C1.66499 7.16925 0.988712 6.79527 0.55127 5.71004C0.581623 4.95701 0.644535 4.5025 1.1062 3.89861C2.05054 3.2138 2.97803 3.33537 4.00017 3.81721Z" fill="#404042"/>
</svg>
