<svg width="60" height="28" viewBox="0 0 60 28" fill="none" xmlns="http://www.w3.org/2000/svg">
<path d="M29.1 0C30.486 0.299279 31.872 0.598559 33.3 0.906907C33.1195 2.81972 32.8135 4.64819 32.3813 6.5184C32.3254 6.76565 32.2695 7.01291 32.2119 7.26766C32.0759 7.86843 31.9382 8.4688 31.8 9.06907C32.6737 9.33898 33.5485 9.60251 34.425 9.86262C34.6725 9.93977 34.92 10.0169 35.175 10.0964C35.4148 10.1666 35.6545 10.2367 35.9016 10.309C36.1215 10.3755 36.3415 10.442 36.5681 10.5105C37.3811 10.6007 37.7218 10.4254 38.4 9.97598C38.8595 9.53277 38.8595 9.53277 39.2625 9.01239C39.4922 8.73298 39.4922 8.73298 39.7266 8.44794C39.8828 8.25387 40.039 8.05981 40.2 7.85986C40.5106 7.4741 40.823 7.08986 41.1375 6.70733C41.2744 6.53704 41.4113 6.36675 41.5523 6.19129C42.0577 5.68601 42.5517 5.42654 43.2 5.13914C43.794 5.7377 43.794 5.7377 44.4 6.34835C43.9665 7.71888 43.2568 8.54245 42.2812 9.57921C41.2741 10.6015 41.2741 10.6015 40.5 11.7898C40.6609 11.8307 40.8218 11.8716 40.9875 11.9138C45.319 13.1127 50.3471 15.197 53.6531 18.3661C54.7557 19.0081 55.9744 18.918 57.225 18.9506C57.4915 18.9609 57.7579 18.9712 58.0324 18.9819C58.6882 19.0067 59.3439 19.0277 60 19.045C59.887 20.639 59.0306 21.468 58.0125 22.5971C57.6839 22.971 57.3557 23.3453 57.0281 23.7201C56.8688 23.9017 56.7095 24.0832 56.5453 24.2702C55.7832 25.1577 55.0857 26.0921 54.3914 27.0336C54 27.5095 54 27.5095 53.4 27.8118C52.7915 27.8435 52.1819 27.8553 51.5726 27.8583C51.1827 27.8609 50.7928 27.8635 50.3911 27.8662C49.9564 27.8676 49.5218 27.8689 49.0871 27.8701C48.6314 27.8725 48.1756 27.875 47.7198 27.8776C46.2206 27.8855 44.7215 27.8902 43.2223 27.8945C42.7065 27.8961 42.1908 27.8977 41.675 27.8994C39.53 27.9059 37.3849 27.9116 35.2399 27.915C32.1639 27.9199 29.0881 27.9299 26.0122 27.9471C23.8504 27.9588 21.6886 27.9647 19.5268 27.9663C18.2351 27.9674 16.9435 27.9711 15.6519 27.9809C14.4366 27.99 13.2216 27.9919 12.0064 27.9883C11.5605 27.9882 11.1146 27.9908 10.6687 27.9961C10.0597 28.0029 9.45066 27.9995 8.84166 27.9956C8.33055 27.9971 8.33055 27.9971 7.8091 27.9987C6.29796 27.6881 5.6416 26.6335 4.76631 25.4264C4.56241 25.1127 4.35851 24.799 4.14844 24.4759C4.03807 24.3064 3.92771 24.137 3.814 23.9624C3.58323 23.607 3.35336 23.2511 3.12437 22.8946C2.7742 22.3502 2.42033 21.8085 2.06602 21.2669C1.84118 20.9196 1.61656 20.5723 1.39219 20.2247C1.08837 19.7547 1.08837 19.7547 0.778418 19.2752C0.3 18.4404 0.3 18.4404 0 17.2312C9.207 17.0816 9.207 17.0816 18.6 16.9289C12.1552 13.2918 12.1552 13.2918 5.7 9.67368C5.86816 8.65695 6.12552 7.86255 6.6 6.95295C8.64536 7.36682 10.5569 7.95941 12.5168 8.67466C12.9605 8.83442 12.9605 8.83442 13.4132 8.9974C14.349 9.33467 15.2839 9.67418 16.2188 10.0138C16.8568 10.2442 17.4949 10.4745 18.133 10.7046C19.6893 11.2661 21.2449 11.8295 22.8 12.3944C22.8402 12.1099 22.8804 11.8255 22.9219 11.5324C23.1 10.5806 23.1 10.5806 23.55 9.86262C24.3979 9.30728 24.7121 9.31747 25.6969 9.34067C25.9407 9.3451 26.1845 9.34954 26.4357 9.3541C26.6219 9.3598 26.8082 9.3655 27 9.37137C27.0316 9.20564 27.0633 9.0399 27.0959 8.86914C27.6691 5.88215 28.2473 2.92146 29.1 0Z" fill="#76777B"/>
</svg>
