<svg width="60" height="49" viewBox="0 0 60 49" fill="none" xmlns="http://www.w3.org/2000/svg">
<path d="M50.6797 26.9776C51.6267 27.008 52.5739 27.0212 53.5213 27.036C55.3727 27.0674 57.2232 27.1175 59.0738 27.1798C59.9749 30.2726 59.9749 30.2726 59.9908 31.7352C59.9938 32.0073 59.9969 32.2793 60 32.5596C59.9973 32.8383 59.9946 33.1171 59.9919 33.4043C59.99 33.6973 59.9882 33.9904 59.9863 34.2923C59.9404 36.6255 59.6223 38.6346 58.8068 40.8335C58.7069 41.1147 58.6071 41.396 58.5042 41.6858C57.3853 44.6013 56.0592 47.1412 53.1984 48.5973C52.2634 48.9098 51.5281 48.9012 50.541 48.9045C50.3509 48.9054 50.1609 48.9064 49.9651 48.9074C49.3267 48.9104 48.6883 48.9114 48.0499 48.9124C47.5928 48.9141 47.1357 48.9159 46.6786 48.9178C45.1759 48.9234 43.6732 48.9262 42.1705 48.9289C41.6531 48.9299 41.1357 48.931 40.6184 48.9322C38.1874 48.9373 35.7564 48.9411 33.3255 48.9433C30.52 48.9459 27.7147 48.953 24.9093 48.9638C22.7405 48.9719 20.5718 48.9758 18.403 48.9767C17.1079 48.9773 15.8129 48.9797 14.5178 48.9865C13.2987 48.9927 12.0798 48.9938 10.8608 48.9911C10.4142 48.991 9.96767 48.9926 9.52113 48.9963C6.97563 49.0161 5.00583 49.0174 2.94445 47.3152C0.522349 44.4905 -0.0437919 41.1646 0.00256792 37.5372C0.00274006 37.2761 0.00291219 37.015 0.00308953 36.7461C0.00987398 35.645 0.0380951 34.6714 0.319707 33.6051C0.600555 33.6074 0.600553 33.6074 0.887075 33.6099C5.45253 33.6473 10.0177 33.6669 14.5833 33.6668C16.7913 33.6672 18.999 33.6735 21.2068 33.6941C23.1323 33.712 25.0574 33.7185 26.983 33.7116C28.0018 33.7084 29.0199 33.7107 30.0386 33.7266C34.7064 34.0517 34.7064 34.0517 38.7341 32.2432C39.2863 31.581 39.7027 30.8825 40.1123 30.1247C42.7203 26.1731 46.4062 26.8259 50.6797 26.9776ZM9.71703 39.0096C9.29667 40.0077 9.24212 40.8362 9.39989 41.9044C9.86969 43.0198 10.4237 43.5752 11.5364 44.0461C12.8424 44.1916 13.4045 44.1856 14.5743 43.5776C15.6324 42.6684 15.7747 42.2637 15.9096 40.8669C15.8795 39.7123 15.4959 39.039 14.7412 38.1563C13.9324 37.5193 13.0726 37.5237 12.0601 37.5539C10.9784 37.6922 10.3945 38.19 9.71703 39.0096ZM21.4178 38.9594C20.8003 39.8316 20.7575 40.5825 20.8836 41.6366C21.4356 42.6445 21.9798 43.5246 23.0202 44.0461C24.2815 44.1889 24.8924 44.1711 26.0413 43.6278C26.9274 42.8221 27.2517 42.2612 27.5602 41.1012C27.5059 39.886 27.2309 39.1596 26.3585 38.3069C24.4081 37.0849 22.9464 37.3541 21.4178 38.9594ZM33.1686 38.6917C32.5264 39.7379 32.2695 40.4888 32.5009 41.6868C32.8198 42.7176 33.3172 43.2022 34.2369 43.7784C35.1119 44.217 35.9653 44.2194 36.9075 44.0461C37.9155 43.5409 38.6108 42.9267 38.9804 41.8437C39.1328 40.8609 39.1143 40.2064 38.7436 39.2774C37.8223 38.2 37.304 37.6713 35.8559 37.487C34.7114 37.5541 34.027 37.9113 33.1686 38.6917ZM44.4354 39.0096C44.015 40.0077 43.9605 40.8362 44.1182 41.9044C44.588 43.0198 45.1421 43.5752 46.2547 44.0461C47.3202 44.2043 48.1468 44.1496 49.1424 43.7282C49.9589 43.05 50.4448 42.4657 50.6039 41.3888C50.6559 40.1866 50.5151 39.378 49.7266 38.424C48.7749 37.6336 47.9683 37.4924 46.769 37.5445C45.6947 37.704 45.1119 38.1911 44.4354 39.0096Z" fill="#76777B"/>
<path d="M9.52802 18.5046C9.77493 18.5028 10.0218 18.5009 10.2762 18.499C11.0882 18.4942 11.9 18.4952 12.712 18.4967C13.279 18.4955 13.846 18.494 14.4131 18.4924C15.5999 18.49 16.7868 18.4907 17.9737 18.4934C19.4916 18.4964 21.0094 18.491 22.5273 18.4832C23.6979 18.4783 24.8684 18.4784 26.039 18.4799C26.5985 18.4799 27.158 18.4783 27.7175 18.475C28.5011 18.471 29.2844 18.4739 30.068 18.4785C30.2971 18.4759 30.5262 18.4733 30.7623 18.4706C32.307 18.4894 33.4786 18.8157 34.7709 19.6836C35.4051 20.3529 35.4051 20.3529 35.8391 21.0222C35.9351 21.1671 36.0311 21.312 36.1301 21.4612C36.4899 22.3962 36.4387 23.3187 36.4254 24.306C36.4247 24.5184 36.4239 24.7308 36.4231 24.9497C36.4201 25.6261 36.4134 26.3025 36.4066 26.979C36.404 27.4384 36.4015 27.8979 36.3993 28.3573C36.3935 29.4819 36.3842 30.6065 36.3733 31.731C32.0601 31.7373 27.7469 31.742 23.4337 31.7449C21.4312 31.7463 19.4287 31.7482 17.4261 31.7512C15.6813 31.7539 13.9365 31.7556 12.1917 31.7562C11.2673 31.7566 10.3429 31.7574 9.41848 31.7593C8.38817 31.7615 7.35787 31.7615 6.32756 31.7614C6.01886 31.7624 5.71016 31.7633 5.39211 31.7643C5.1131 31.764 4.83409 31.7636 4.54662 31.7632C4.18068 31.7636 4.18068 31.7636 3.80734 31.764C3.2573 31.731 3.2573 31.731 2.99023 31.4633C2.99023 30.2264 2.99023 28.9896 2.99023 27.7152C16.6065 27.5827 16.6065 27.5827 30.4978 27.4475C30.586 27.0058 30.6741 26.564 30.7649 26.1089C21.5993 26.0206 12.4336 25.9322 2.99023 25.8412C2.99023 21.7575 2.99023 21.7575 4.61244 19.829C6.13529 18.6059 7.65332 18.4948 9.52802 18.5046Z" fill="#76777B"/>
<path d="M12.2876 0.0397396C12.5096 0.0266255 12.7317 0.0135115 12.9604 0C14.0031 0.205063 14.6844 0.603721 15.2753 1.47873C15.5035 2.63479 15.4615 3.77316 15.4318 4.94758C15.4295 5.2844 15.4273 5.62121 15.4249 5.96824C15.4175 6.86064 15.4031 7.75238 15.3854 8.6446C15.3689 9.55622 15.3616 10.4679 15.3536 11.3796C15.3359 13.1662 15.3083 14.9524 15.2753 16.7387C13.2483 16.7387 11.2213 16.7387 9.13286 16.7387C9.10871 14.7676 9.08912 12.7965 9.07751 10.8252C9.07194 9.90987 9.06438 8.9946 9.05227 8.07929C9.03843 7.02669 9.03325 5.97412 9.02854 4.92143C9.02302 4.59317 9.01751 4.2649 9.01183 3.92669C9.01175 3.62125 9.01167 3.31581 9.01158 3.00112C9.00802 2.59805 9.00802 2.59805 9.00439 2.18684C9.16888 1.28018 9.48873 0.972478 10.2011 0.407854C10.9525 0.156768 11.5033 0.0711372 12.2876 0.0397396Z" fill="#76777B"/>
<path d="M24.6227 7.97092C25.4265 8.67595 25.6688 9.22305 25.7516 10.2954C25.7488 10.5926 25.746 10.8899 25.7431 11.1961C25.7414 11.5188 25.7397 11.8415 25.7379 12.1739C25.7334 12.5097 25.729 12.8455 25.7244 13.1914C25.7219 13.5314 25.7195 13.8713 25.7171 14.2215C25.7108 15.0606 25.7012 15.8997 25.691 16.7387C23.5758 16.7387 21.4607 16.7387 19.2814 16.7387C19.2526 15.5171 19.2314 14.2961 19.2147 13.0743C19.2057 12.728 19.1968 12.3817 19.1875 12.0249C19.1841 11.691 19.1807 11.3571 19.1771 11.0131C19.1715 10.7061 19.1659 10.399 19.1602 10.0827C19.3079 9.05939 19.6244 8.62642 20.3497 7.90399C21.7528 7.43513 23.2512 7.39804 24.6227 7.97092Z" fill="#76777B"/>
<path d="M36.6406 39.4949C37.1747 40.2981 37.1747 40.2981 37.0913 41.1347C36.9077 41.9044 36.9077 41.9044 36.6406 42.1721C35.1639 42.2351 35.1639 42.2351 34.5041 41.9044C34.2502 41.0251 34.21 40.6469 34.5041 39.7626C35.2488 39.3893 35.8183 39.4262 36.6406 39.4949Z" fill="#76777B"/>
<path d="M24.0717 39.4614C24.8895 39.4949 24.8895 39.4949 25.4237 39.7626C25.6776 40.6418 25.7177 41.0201 25.4237 41.9044C24.6789 42.2776 24.1095 42.2408 23.2872 42.1721C22.753 41.3689 22.753 41.3689 22.8365 40.5323C23.0819 39.5036 23.0819 39.5036 24.0717 39.4614Z" fill="#76777B"/>
<path d="M47.3229 39.4279C48.1241 39.4948 48.1241 39.4948 48.6582 40.0303C48.725 40.8334 48.725 40.8334 48.6582 41.6366C48.1241 42.172 48.1241 42.172 47.3229 42.239C46.5217 42.172 46.5217 42.172 45.9876 41.6366C45.9208 40.8334 45.9208 40.8334 45.9876 40.0303C46.5217 39.4948 46.5217 39.4948 47.3229 39.4279Z" fill="#76777B"/>
<path d="M12.6046 39.4279C13.4058 39.4948 13.4058 39.4948 13.94 40.0303C14.0067 40.8334 14.0067 40.8334 13.94 41.6366C13.4058 42.172 13.4058 42.172 12.6046 42.239C11.8034 42.172 11.8034 42.172 11.2693 41.6366C11.2025 40.8334 11.2025 40.8334 11.2693 40.0303C11.8034 39.4948 11.8034 39.4948 12.6046 39.4279Z" fill="#76777B"/>
</svg>
