<svg width="60" height="49" viewBox="0 0 60 49" fill="none" xmlns="http://www.w3.org/2000/svg">
<path d="M0 34.812C19.8 34.812 39.6 34.812 60 34.812C60 40.5584 60 40.5584 58.5938 42.2884C58.4297 42.4911 58.2656 42.6938 58.0966 42.9026C57.5801 43.5015 57.0435 44.0655 56.4844 44.6248C56.3403 44.7739 56.1961 44.923 56.0477 45.0766C52.8649 48.127 48.7182 48.6985 44.4998 48.7318C44.1021 48.7374 43.7043 48.7432 43.3066 48.7492C42.0089 48.7674 40.7112 48.7783 39.4135 48.7883C38.9626 48.7921 38.5118 48.7958 38.061 48.7996C36.1814 48.8148 34.3019 48.8279 32.4223 48.8358C29.751 48.8471 27.0804 48.8703 24.4093 48.9104C22.5192 48.9378 20.6294 48.9512 18.7391 48.9549C17.6162 48.9574 16.4941 48.9655 15.3714 48.9886C9.39679 49.1059 5.07513 48.3498 0 45.0921C0 44.1669 0 43.2417 0 42.2884C7.81172 42.2884 15.6234 42.2884 23.6719 42.2884C23.6719 41.209 23.6719 40.1296 23.6719 39.0175C15.8602 39.0175 8.04844 39.0175 0 39.0175C0 37.6297 0 36.2419 0 34.812ZM32.8125 39.0175C32.8125 40.0969 32.8125 41.1763 32.8125 42.2884C33.8953 42.2884 34.9781 42.2884 36.0938 42.2884C36.0938 41.209 36.0938 40.1296 36.0938 39.0175C35.0109 39.0175 33.9281 39.0175 32.8125 39.0175ZM39.8438 39.0175C39.8438 40.0969 39.8438 41.1763 39.8438 42.2884C40.9266 42.2884 42.0094 42.2884 43.125 42.2884C43.125 41.209 43.125 40.1296 43.125 39.0175C42.0422 39.0175 40.9594 39.0175 39.8438 39.0175ZM46.875 39.0175C46.875 40.0969 46.875 41.1763 46.875 42.2884C47.9578 42.2884 49.0406 42.2884 50.1562 42.2884C50.1562 41.209 50.1562 40.1296 50.1562 39.0175C49.0734 39.0175 47.9906 39.0175 46.875 39.0175Z" fill="#76777B"/>
<path d="M26.25 0C27.4875 0 28.725 0 30 0C30 1.15651 30 2.31301 30 3.50457C30.6961 3.50457 31.3922 3.50457 32.1094 3.50457C32.1094 4.73817 32.1094 5.97178 32.1094 7.24277C31.4133 7.24277 30.7172 7.24277 30 7.24277C30 8.32218 30 9.40159 30 10.5137C31.3922 10.5137 32.7844 10.5137 34.2188 10.5137C34.2188 11.7473 34.2188 12.9809 34.2188 14.2519C32.8266 14.2519 31.4344 14.2519 30 14.2519C30 15.4855 30 16.7191 30 17.9901C31.3922 17.9901 32.7844 17.9901 34.2188 17.9901C34.2188 20.4573 34.2188 22.9245 34.2188 25.4665C35.3016 25.4665 36.3844 25.4665 37.5 25.4665C37.5 27.4711 37.5 29.4757 37.5 31.5411C29.9203 31.5411 22.3406 31.5411 14.5312 31.5411C14.5312 30.2304 14.5312 28.9197 14.5312 27.5693C15.1176 27.2087 15.7074 26.8613 16.3037 26.5179C16.5446 26.3675 16.5446 26.3675 16.7903 26.214C18.6822 25.1484 19.535 25.4665 22.0312 25.4665C22.0312 22.9993 22.0312 20.5321 22.0312 17.9901C23.4234 17.9901 24.8156 17.9901 26.25 17.9901C26.25 16.7565 26.25 15.5229 26.25 14.2519C24.9352 14.2519 23.6203 14.2519 22.2656 14.2519C22.2656 13.0183 22.2656 11.7847 22.2656 10.5137C23.5805 10.5137 24.8953 10.5137 26.25 10.5137C26.25 9.4343 26.25 8.35489 26.25 7.24277C25.6313 7.24277 25.0125 7.24277 24.375 7.24277C24.375 6.00916 24.375 4.77556 24.375 3.50457C24.9937 3.50457 25.6125 3.50457 26.25 3.50457C26.25 2.34806 26.25 1.19155 26.25 0Z" fill="#76777B"/>
<path d="M44.7656 25.4666C48.5555 25.4666 52.3453 25.4666 56.25 25.4666C56.25 26.7002 56.25 27.9338 56.25 29.2048C54.4711 29.2048 52.6922 29.2048 50.8594 29.2048C50.8594 29.9758 50.8594 30.7468 50.8594 31.5411C47.9203 31.5411 44.9813 31.5411 41.9531 31.5411C42.6606 29.4255 43.7651 27.4612 44.7656 25.4666Z" fill="#76777B"/>
<path d="M2.8125 21.9619C3.63648 22.2731 4.10039 22.7838 4.67777 23.4316C5.99961 24.8991 6.9331 25.4725 8.93738 25.7695C9.86695 25.9968 10.2491 26.4322 10.7922 27.1905C11.721 28.7653 11.25 28.7105 11.25 31.5411C8.775 31.5411 6.3 31.5411 3.75 31.5411C3.77417 30.9869 3.79834 30.4328 3.82324 29.8618C3.80701 28.3824 3.4431 27.5185 2.40938 26.4537C1.77987 25.8661 1.13832 25.3077 0.46875 24.7656C0.814972 23.9591 1.27452 23.4456 1.9043 22.8381C2.07409 22.673 2.24388 22.508 2.41882 22.338C2.54874 22.2139 2.67865 22.0898 2.8125 21.9619Z" fill="#76777B"/>
</svg>
