<svg width="60" height="40" viewBox="0 0 60 40" fill="none" xmlns="http://www.w3.org/2000/svg">
<path d="M22.5282 13.2095C22.9289 13.2065 22.9289 13.2065 23.3377 13.2035C24.2168 13.1992 25.0953 13.2065 25.9744 13.2143C26.5903 13.2146 27.2061 13.2143 27.822 13.2135C29.1125 13.2136 30.4028 13.2191 31.6932 13.2288C33.3364 13.241 34.9794 13.2413 36.6226 13.2377C37.8952 13.2359 39.1678 13.2395 40.4404 13.2447C41.0455 13.2468 41.6507 13.2474 42.2558 13.2466C47.4264 13.2453 52.1036 13.4997 56.0579 17.2308C58.5638 19.8916 59.8878 23.0296 60 26.701C59.8775 30.6849 58.1021 33.9548 55.2593 36.6709C51.2662 39.9524 46.3571 39.8297 41.4745 39.8546C41.0208 39.858 41.0208 39.858 40.5581 39.8615C38.9601 39.8735 37.3622 39.8809 35.7642 39.8844C34.1217 39.8888 32.4797 39.9082 30.8373 39.9311C29.5659 39.9461 28.2946 39.9502 27.0231 39.9515C26.4178 39.9539 25.8125 39.9603 25.2072 39.9709C19.5064 40.0639 19.5064 40.0639 17.1531 37.8756C16.9607 37.6782 16.7683 37.4808 16.5702 37.2775C16.2204 37.0003 15.8668 36.7276 15.5063 36.4646C15.2205 36.2441 14.9348 36.0234 14.6492 35.8025C14.5002 35.6877 14.3512 35.5729 14.1977 35.4547C13.1297 34.6297 13.1297 34.6297 12.8285 34.3275C12.7857 33.5544 12.7591 32.7871 12.7439 32.0133C12.7384 31.7816 12.7328 31.5498 12.7271 31.311C12.7096 30.5677 12.6939 29.8244 12.6782 29.0811C12.6666 28.5785 12.655 28.0758 12.6432 27.5731C12.6145 26.3382 12.5875 25.1033 12.5612 23.8683C12.0321 23.8683 11.5029 23.8683 10.9577 23.8683C10.9636 24.1686 10.9695 24.4689 10.9756 24.7783C10.994 25.897 10.9948 27.0151 10.9903 28.134C10.9908 28.6173 10.9961 29.1006 11.0062 29.5838C11.0859 33.6031 11.0859 33.6031 10.1222 34.7148C9.4297 35.1318 8.77819 35.4009 8.01782 35.6684C7.79048 35.8121 7.56314 35.9558 7.32892 36.1038C6.68151 36.4729 6.68151 36.4729 5.61247 36.4729C5.61247 34.5259 5.61247 32.5789 5.61247 30.5729C4.55412 30.5729 3.49577 30.5729 2.40535 30.5729C2.42739 31.0818 2.44944 31.5907 2.47216 32.115C2.53795 33.6333 2.53795 33.6333 1.86665 34.4322C1.60413 34.6459 1.60413 34.6459 1.3363 34.8638C0.895323 34.6868 0.454343 34.5098 0 34.3275C0 32.3805 0 30.4335 0 28.4274C0.627668 28.1125 0.998951 28.1284 1.69752 28.1331C2.03859 28.1344 2.03859 28.1344 2.38655 28.1357C2.62427 28.1379 2.86198 28.1402 3.1069 28.1425C3.34669 28.1437 3.58647 28.1449 3.83352 28.1462C4.42651 28.1493 5.01949 28.1541 5.61247 28.1593C5.61247 27.0972 5.61247 26.0352 5.61247 24.9411C5.25211 24.9442 4.89175 24.9473 4.52046 24.9505C4.04928 24.953 3.57809 24.9554 3.1069 24.9578C2.86919 24.9601 2.63147 24.9623 2.38655 24.9646C2.04548 24.9659 2.04548 24.9659 1.69752 24.9672C1.38261 24.9693 1.38261 24.9693 1.06134 24.9715C0.534521 24.9411 0.534521 24.9411 0 24.6729C0 22.7259 0 20.7788 0 18.7728C0.44098 18.5958 0.88196 18.4188 1.3363 18.2365C2.08689 18.8473 2.38326 19.1381 2.50974 20.1179C2.45754 21.3227 2.45754 21.3227 2.40535 22.5274C3.4637 22.5274 4.52205 22.5274 5.61247 22.5274C5.61247 20.5804 5.61247 18.6334 5.61247 16.6274C6.67491 16.8406 7.16064 16.9575 8.03557 17.4686C8.23142 17.579 8.42728 17.6895 8.62907 17.8033C9.03663 18.0374 9.44308 18.2735 9.84845 18.5115C10.044 18.6209 10.2395 18.7303 10.4409 18.843C10.6172 18.9452 10.7934 19.0475 10.975 19.1528C11.4969 19.3664 11.4969 19.3664 12.0212 19.1212C12.5968 18.7499 13.1519 18.3652 13.7013 17.9557C14.0253 17.7151 14.0253 17.7151 14.3559 17.4696C14.5795 17.3023 14.803 17.135 15.0334 16.9626C15.2529 16.7994 15.4723 16.6363 15.6984 16.4681C16.9178 15.5822 16.9178 15.5822 18.0778 14.6226C19.5416 13.3715 20.6396 13.1782 22.5282 13.2095ZM22.784 22.9967C21.7315 24.2771 21.2891 25.4359 21.431 27.1033C21.7447 28.9222 22.5682 30.0845 23.972 31.2455C25.2017 32.0443 26.4512 32.3014 27.8995 32.0877C29.752 31.5629 31.0727 30.5494 32.0546 28.8968C32.5285 27.2182 32.6317 25.6715 31.9042 24.0527C31.1437 22.7131 30.0246 21.7693 28.5969 21.1865C26.1502 20.9232 24.505 21.1744 22.784 22.9967ZM39.3207 22.343C39.0396 22.6998 39.0396 22.6998 38.7528 23.0638C38.5543 23.3016 38.3559 23.5395 38.1514 23.7845C37.4446 25.127 37.2603 26.4357 37.5157 27.9382C37.972 29.4031 38.8499 30.4909 40.0891 31.3775C41.6228 32.1406 42.9741 32.338 44.6231 31.8593C46.2745 31.2105 47.306 30.169 48.1737 28.6453C48.6526 26.8431 48.5793 25.1616 47.6402 23.5331C46.5292 21.9771 45.0864 21.3602 43.2962 20.9183C41.8589 20.9183 40.4253 21.4515 39.3207 22.343Z" fill="#76777B"/>
<path d="M32.6059 0C33.8406 0 35.0754 0 36.3476 0C36.5146 0.905119 36.5146 0.905119 36.6148 1.87728C36.4384 2.05429 36.262 2.23129 36.0803 2.41365C35.6393 2.41365 35.1983 2.41365 34.744 2.41365C34.744 3.91816 34.744 5.42267 34.744 6.97277C35.4496 6.97277 36.1551 6.97277 36.8821 6.97277C37.5116 7.42533 37.5116 7.42533 38.0012 8.0455C38.1649 8.24463 38.3285 8.44376 38.4971 8.64892C39.1585 9.58154 39.7519 10.5612 40.3565 11.5319C36.564 11.5319 32.7716 11.5319 28.8643 11.5319C28.8643 8.0455 28.8643 8.0455 29.9333 6.97277C30.6767 6.83665 31.3085 6.92174 32.0714 6.97277C32.0686 6.79966 32.0658 6.62655 32.0629 6.44819C32.0518 5.66207 32.0448 4.87597 32.038 4.0898C32.0335 3.81738 32.029 3.54497 32.0244 3.2643C32.0227 3.00156 32.021 2.73882 32.0192 2.46813C32.0164 2.22656 32.0136 1.985 32.0107 1.73612C32.0714 1.07273 32.0714 1.07273 32.6059 0Z" fill="#76777B"/>
<path d="M44.3651 23.0638C45.4291 23.6685 46.1149 24.3086 46.5031 25.4775C46.5954 26.9128 46.6336 27.8026 45.7014 28.9638C45.0921 29.6493 44.6518 29.9889 43.7408 30.1403C42.6037 30.19 41.8251 30.0947 40.7737 29.6343C39.8974 28.7764 39.4805 28.0337 39.2871 26.8184C39.3421 25.5704 39.6832 24.8361 40.4898 23.8851C41.6995 22.8836 42.833 22.816 44.3651 23.0638Z" fill="#76777B"/>
<path d="M28.3297 23.0638C29.3931 23.6721 30.079 24.3068 30.4678 25.4774C30.5601 26.9128 30.5983 27.8026 29.666 28.9638C29.0568 29.6493 28.6165 29.9889 27.7054 30.1402C26.1855 30.2067 25.222 30.0191 24.0536 28.9638C23.3214 27.7731 23.3439 26.568 23.519 25.2092C24.5596 23.1209 26.1076 22.6636 28.3297 23.0638Z" fill="#76777B"/>
</svg>
